<svg xmlns="http://www.w3.org/2000/svg" viewBox="0 0 169 160"><defs><linearGradient x2="168.59" x1="57.12" gradientUnits="userSpaceOnUse" id="0"><stop offset=".126" stop-color="#2699bf"/><stop offset=".314" stop-color="#22add8"/><stop offset=".575" stop-color="#28c3f4"/><stop offset=".725" stop-color="#3cf"/></linearGradient></defs><path fill="#2699bf" d="M67.12 61.771 66.59 5 27.736 11.952 58.3 61.771z"/><path fill="#3cf" d="M50.37 56.859 22.525 15.788 2.098 42.996 47.64 62.878z"/><path fill="#2699bf" d="m.409 48.3l52.01 22.02v6.02l-52.01 7.626z"/><g fill="#3cf"><path d="m56.793 141.06l-.343-13.4-11.675-10.66-13.07 8.63 1.984 11.36 5.521.82-1.04-9.02 5.677-4.09 5.733 5.01-.06 7-8.11 7.39-12.477-2.77-6.229-27.11 15.03-30.95-36.565 6.38 7.585 28.09 14.232 31.1 18.872 3.88z"/><path d="m115.55 22.887c.006.181.013.361.013.543 0 7.598-6.155 13.751-13.747 13.751-7.594 0-13.747-6.153-13.747-13.751 0-6.244 4.167-11.514 9.872-13.186l-25.853-10.244v48.606l58.43-4.653-14.969-21.07"/></g><path d="m162.5 125.83c-4.064-3.243-10.3-5.699-18.706-7.374-5.4-1.045-9-2.25-10.799-3.607-1.797-1.361-2.703-3.063-2.703-5.119 0-2.176.945-3.986 2.832-5.426 1.883-1.445 4.432-2.166 7.654-2.166 2.305 0 4.405.335 6.312 1 1.9.669 3.479 1.507 4.734 2.512l1.943 8.47h12.306l-.19-16.883c-2.676-2.223-6.37-4.04-11.07-5.46-4.713-1.423-9.698-2.134-14.974-2.134-.423 0-.834.011-1.246.021v-22.365h-81.47v24.354h13.997l.754-10.231h16.76v64.39l-9.794 1.886v10.982h37.913v-5.39c2.676 1.824 5.609 3.298 8.809 4.417 4.373 1.529 9.174 2.289 14.405 2.289 8.58 0 15.492-1.932 20.745-5.801 5.248-3.873 7.878-8.859 7.878-14.973.0001-5.69-2.031-10.162-6.085-13.4m-14.599 19.613c-1.942 1.341-4.778 2.01-8.501 2.01-2.05 0-4.01-.218-5.901-.664-1.883-.437-3.367-1.116-4.457-2.038l-2.512-8.849h-12.801l.135 11.246-6.906-1.33v-64.39h16.814l.754 10.231h2.441c-2.75 1.01-5.137 2.398-7.154 4.171-4.684 4.121-7.03 9.03-7.03 14.723 0 5.521 2.043 9.882 6.118 13.09 4.082 3.201 10.117 5.617 18.1 7.248 5.276 1.127 8.895 2.43 10.865 3.891 1.965 1.463 2.947 3.199 2.947 5.209.0001 2.298-.975 4.12-2.919 5.459" fill="url(#0)"/><path d="m118.17073 24.93062a13.303195 13.542892 0 1 1 -26.606394 0 13.303195 13.542892 0 1 1 26.606394 0" transform="matrix(1.04054 0 0 1.0177-7.357-1.915)" fill="#fff" fill-rule="evenodd"/><circle cx="101.82" cy="23.432" r="8.52" fill="#f90" transform="translate(-.077.04)"/></svg>